PathFileType	4	(X/Y/Z)	4_coords_data.trc
DataRate	CameraRate	NumFrames	NumMarkers	Units	OrigDataRate	OrigDataStartFrame	OrigNumFrames
30.0	30.0	5	21	m	30.0	34	44
Frame#	Time	THUMB_TIP	THUMB_IP	THUMB_MCP	THUMB_CMC	INDEX_TIP	INDEX_DIP	INDEX_PIP	INDEX_MCP	MIDDLE_TIP	MIDDLE_DIP	MIDDLE_PIP	MIDDLE_MCP	RING_TIP	RING_DIP	RING_PIP	RING_MCP	PINKY_TIP	PINKY_DIP	PINKY_PIP	PINKY_MCP	WRIST
X1	Y1	Z1	X2	Y2	Z2	X3	Y3	Z3	X4	Y4	Z4	X5	Y5	Z5	X6	Y6	Z6	X7	Y7	Z7	X8	Y8	Z8	X9	Y9	Z9	X10	Y10	Z10	X11	Y11	Z11	X12	Y12	Z12	X13	Y13	Z13	X14	Y14	Z14	X15	Y15	Z15	X16	Y16	Z16	X17	Y17	Z17	X18	Y18	Z18	X19	Y19	Z19	X20	Y20	Z20	X21	Y21	Z21
33	1.1	-0.014262399673461913	-0.09525910186767578	1.02843994140625	-0.025631500244140626	-0.07346330261230469	1.044739990234375	-0.04486830139160156	-0.06030500030517578	1.0688499755859375	-0.05128179931640625	-0.025828399658203126	1.083010009765625	-0.005659170150756836	-0.04209809875488281	1.0478399658203126	-0.008274020195007325	-0.04758319854736328	1.02693994140625	-0.025469100952148438	-0.05169889831542969	1.0073200073242188	-0.06601760101318359	-0.04343180084228516	1.0219000244140626	-0.010614899635314942	-0.027590599060058594	1.0493199462890626	-0.003428070068359375	-0.028946100234985353	1.0303299560546875	-0.016762500762939454	-0.029384899139404296	1.0035999755859375	-0.0622322998046875	-0.017697399139404296	1.01422998046875	-0.009327759742736816	-0.010451100349426269	1.046280029296875	-0.000442149013280868	-0.008786580085754395	1.0289599609375	-0.011081299781799316	-0.003950789928436279	1.0029199829101563	-0.055202999114990235	0.005932400226593018	1.0153300170898438	-0.011331500053405762	0.00593435001373291	1.0371099853515624	-0.004927440166473389	0.013911399841308594	1.0235399780273438	-0.014907600402832032	0.024715700149536134	1.0085700073242188	-0.04815010070800781	0.02894179916381836	1.0206300048828125	-0.0772063980102539	0.005558050155639648	1.099050048828125
34	1.1333333333333333	-0.011671299934387208	-0.09339479827880859	1.0341700439453125	-0.02445429992675781	-0.07247010040283203	1.0495799560546875	-0.04544879913330078	-0.059964199066162106	1.0727099609375	-0.05360060119628906	-0.025841999053955077	1.08702001953125	0.002687939882278442	-0.04692699813842773	1.042550048828125	-0.005581560134887695	-0.05106560134887695	1.0229099731445312	-0.026385400772094728	-0.05320920181274414	1.0068300170898437	-0.06517579650878906	-0.043562301635742186	1.0250699462890625	-0.001835530042648315	-0.03164240074157715	1.04575	0.000801424026489257	-0.03216070175170899	1.0258399658203126	-0.017112699508666993	-0.03053730010986328	1.001780029296875	-0.0610968017578125	-0.018022800445556642	1.01747998046875	-0.000123779997229576	-0.012198800086975098	1.0405799560546876	0.004276939868927002	-0.00944495964050293	1.0208200073242188	-0.01255500030517578	-0.003951560020446778	0.9981170043945312	-0.053631698608398434	0.005104290008544922	1.0183300170898437	-0.0034809200763702393	0.006850160121917724	1.0296500244140625	-0.001811020016670227	0.016848800659179687	1.01525	-0.016156700134277342	0.027398500442504883	1.0044500122070312	-0.045045700073242184	0.027476999282836916	1.0236199951171876	-0.08021600341796875	0.006000160217285156	1.102239990234375
35	1.1666666666666667	-0.010199999809265137	-0.0916719970703125	1.0396700439453126	-0.02402459907531738	-0.07133550262451172	1.05443994140625	-0.04642110061645508	-0.05923600006103515	1.0766800537109376	-0.055652099609375	-0.025194000244140625	1.0903499755859376	0.009431440353393555	-0.05012699890136719	1.0349000244140625	-0.003686889886856079	-0.05260820007324219	1.0184400024414062	-0.0273523006439209	-0.05301219940185547	1.006530029296875	-0.06417559814453125	-0.04322880172729492	1.028199951171875	0.005792600154876709	-0.03406589889526367	1.0425	0.004021210193634033	-0.03317440032958984	1.0200599975585938	-0.018050600051879882	-0.0297091007232666	0.9999359741210937	-0.06036050033569336	-0.0176914005279541	1.0207999877929688	0.008154199600219727	-0.012550000190734864	1.034550048828125	0.006740099906921386	-0.008245229721069336	1.0132000122070313	-0.014954500198364258	-0.002293709993362426	0.9951890258789062	-0.052369400024414064	0.004926680088043213	1.0218499755859376	0.000554581999778747	0.010267499923706055	1.024489990234375	-0.002321949958801269	0.021258899688720703	1.0106900024414063	-0.019279199600219725	0.03067210006713867	1.0036699829101563	-0.04297890090942383	0.02722800064086914	1.027300048828125	-0.08332630157470704	0.006352310180664062	1.1053199462890626
36	1.2	-0.008460920333862304	-0.08884049987792969	1.0446300048828125	-0.023610300064086914	-0.06928610229492188	1.058949951171875	-0.04713570022583008	-0.05779290008544922	1.0804300537109375	-0.05767240142822266	-0.024046199798583984	1.093550048828125	0.012579099655151367	-0.0517672004699707	1.0268800048828124	-0.004067150115966797	-0.05264469909667969	1.0133699951171875	-0.02911779975891113	-0.05166170120239258	1.0058900146484375	-0.06346950149536133	-0.042222198486328126	1.031010009765625	0.01317650032043457	-0.03481719970703125	1.0351500244140626	0.005405910015106201	-0.03185359954833984	1.0136400146484374	-0.02015239906311035	-0.027011499404907227	0.9984349975585938	-0.0602067985534668	-0.016900999069213867	1.0241099853515625	0.014826899528503417	-0.01087720012664795	1.0268299560546874	0.006859869956970215	-0.004933229923248291	1.0069400024414064	-0.018221900939941405	0.0011558899879455559	0.994156005859375	-0.05215700149536133	0.005784470081329346	1.025219970703125	0.0029432299137115477	0.014342000007629394	1.0230999755859376	-0.0031037800312042232	0.02586160087585449	1.0111199951171874	-0.021544700622558595	0.03424409866333008	1.0065700073242188	-0.042919300079345704	0.02824139976501465	1.03102001953125	-0.08674749755859375	0.00694271993637085	1.10822998046875
37	1.2333333333333334	-0.007280910015106201	-0.08622339630126953	1.0493299560546876	-0.02367840003967285	-0.06704859924316406	1.063300048828125	-0.04819509887695313	-0.05624290084838867	1.083969970703125	-0.05971049880981445	-0.02262179946899414	1.096050048828125	0.01314389991760254	-0.052098201751708983	1.0188800048828126	-0.0060895800590515135	-0.05200030136108398	1.0090800170898437	-0.03184950065612793	-0.050112098693847654	1.0055499877929688	-0.06343320083618165	-0.04124319839477539	1.034030029296875	0.018803300857543944	-0.03352489852905274	1.0258900146484375	0.005070189952850342	-0.02938349914550781	1.0080999755859374	-0.023201499938964844	-0.024062299728393556	0.9976790161132812	-0.06047370147705078	-0.015894700050354003	1.026469970703125	0.01838990020751953	-0.007814879894256593	1.0191900024414062	0.0052489500045776365	-0.001077239990234375	1.002239990234375	-0.02216939926147461	0.004519070148468017	0.99425	-0.052775398254394534	0.0068448901176452635	1.0281800537109376	0.003971839904785156	0.019026699066162108	1.0223800048828124	-0.005017660140991211	0.030409400939941406	1.0118900146484375	-0.024542400360107422	0.03738059997558594	1.0093900146484376	-0.044109100341796874	0.029493600845336913	1.0341500244140625	-0.08990059661865234	0.007609479904174805	1.11102001953125
